<svg width="478" height="478" viewBox="0 0 478 478" fill="none" xmlns="http://www.w3.org/2000/svg">
<path fill-rule="evenodd" clip-rule="evenodd" d="M239 3C369.3 3 475 108.7 475 239C475 369.3 369.3 475 239 475C108.7 475 3 369.3 3 239C3 108.7 108.7 3 239 3Z" fill="white" stroke="#006FB6" stroke-width="4.6772" stroke-miterlimit="10"/>
<path fill-rule="evenodd" clip-rule="evenodd" d="M237.7 14.5C361.4 14.5 461.8 115.1 461.8 239C461.8 362.9 361.4 463.5 237.7 463.5C114 463.5 13.5 362.9 13.5 239C13.5 115.1 114 14.5 237.7 14.5Z" fill="#006FB6"/>
<path fill-rule="evenodd" clip-rule="evenodd" d="M196.9 78.4L193.7 144.5L159.3 176.2L162 110.1L95.9 106.9L130.4 75.2L196.9 78.4Z" fill="white"/>
<path fill-rule="evenodd" clip-rule="evenodd" d="M111 270.9C94.4 209.1 124.5 145.4 179.5 118L167.2 89.1C97.9 122.8 59.9 202 80.9 279.2L111 270.9Z" fill="white"/>
<path fill-rule="evenodd" clip-rule="evenodd" d="M397.3 279.2L341.4 243.5L331.1 198L387 233.2L422.6 177.4L432.9 223.3L397.3 279.2Z" fill="white"/>
<path fill-rule="evenodd" clip-rule="evenodd" d="M273.3 108.5C335.1 125.1 375.1 182.9 371.5 244.3L402.4 248.3C408 171.5 358.5 99 281.2 78.4L273.3 108.5Z" fill="white"/>
<path fill-rule="evenodd" clip-rule="evenodd" d="M122.8 352.8L181.8 321.9L226.6 336.2L167.6 366.7L198.1 425.7L153.7 411.4L122.8 352.8Z" fill="white"/>
<path fill-rule="evenodd" clip-rule="evenodd" d="M333.1 330.7C287.6 375.8 217.5 381.8 166.4 348.1L147.4 372.7C211.2 415.9 298.7 409.1 355.3 352.9L333.1 330.7Z" fill="white"/>
</svg>
