<svg width="366" height="322" viewBox="0 0 366 322" fill="none" xmlns="http://www.w3.org/2000/svg">
<g id="warning-sign">
<path id="Vector" fill-rule="evenodd" clip-rule="evenodd" d="M108.5 302.7H18.5L182.6 13.9L348.3 302.7H108.5Z" fill="white"/>
<path id="Vector_2" fill-rule="evenodd" clip-rule="evenodd" d="M341.2 321.8C349.6 321.8 357.5 317.2 361.9 309.8C366.3 302.4 366.3 293.2 361.9 285.8L203.7 12.3C199.4 4.7 191.5 0 182.8 0C174.2 0 166.3 4.7 162 12.2L4.10002 285.6C-0.299982 293.2 -0.299982 302.5 4.10002 309.9C8.50002 317.2 16.4 321.9 25.1 321.9L341.2 321.8ZM39 289.7H327L183.1 40.3L39 289.7Z" fill="#BD002D"/>
<g id="icon">
<path id="Vector_3" fill-rule="evenodd" clip-rule="evenodd" d="M182.4 233.4C194.1 233.4 203.7 242.9 203.7 254.7C203.7 266.4 194.2 276 182.4 276C170.7 276 161.1 266.5 161.1 254.7C161.1 242.9 170.7 233.4 182.4 233.4Z" fill="black"/>
<path id="Vector_4" fill-rule="evenodd" clip-rule="evenodd" d="M179.1 222.1H185.4L209.3 127C209.7 125.1 209.9 123.2 209.9 121.3C209.9 106 197.4 93.5 182.1 93.5C166.8 93.5 154.3 106 154.3 121.3C154.3 123.2 154.5 125.1 154.9 127L179.1 222.1Z" fill="black"/>
</g>
</g>
</svg>
